<?xml version="1.0" encoding="UTF-8" standalone="no"?>
<!-- Created with Inkscape (http://www.inkscape.org/) -->

<svg
   xmlns:dc="http://purl.org/dc/elements/1.1/"
   xmlns:cc="http://creativecommons.org/ns#"
   xmlns:rdf="http://www.w3.org/1999/02/22-rdf-syntax-ns#"
   xmlns:svg="http://www.w3.org/2000/svg"
   xmlns="http://www.w3.org/2000/svg"
   xmlns:sodipodi="http://sodipodi.sourceforge.net/DTD/sodipodi-0.dtd"
   xmlns:inkscape="http://www.inkscape.org/namespaces/inkscape"
   width="256"
   height="256"
   id="svg2"
   version="1.1"
   inkscape:version="0.91 r13725"
   sodipodi:docname="logo.svg"
   inkscape:export-filename="/home/ybon/Code/js/kosmtik/favicon16.png"
   inkscape:export-xdpi="5.625"
   inkscape:export-ydpi="5.625">
  <defs
     id="defs4" />
  <sodipodi:namedview
     id="base"
     pagecolor="#ffffff"
     bordercolor="#666666"
     borderopacity="1.0"
     inkscape:pageopacity="0.0"
     inkscape:pageshadow="2"
     inkscape:zoom="0.9899495"
     inkscape:cx="-768.93925"
     inkscape:cy="32.501705"
     inkscape:document-units="px"
     inkscape:current-layer="layer1"
     showgrid="true"
     inkscape:window-width="1366"
     inkscape:window-height="744"
     inkscape:window-x="0"
     inkscape:window-y="24"
     inkscape:window-maximized="1"
     inkscape:snap-page="true"
     showguides="false"
     inkscape:guide-bbox="true">
    <inkscape:grid
       type="xygrid"
       id="grid2985"
       empspacing="4"
       visible="true"
       enabled="true"
       snapvisiblegridlinesonly="true" />
    <sodipodi:guide
       position="-656,112"
       orientation="0,1"
       id="guide4459" />
    <sodipodi:guide
       position="-688,-112"
       orientation="0,1"
       id="guide4461" />
  </sodipodi:namedview>
  <metadata
     id="metadata7">
    <rdf:RDF>
      <cc:Work
         rdf:about="">
        <dc:format>image/svg+xml</dc:format>
        <dc:type
           rdf:resource="http://purl.org/dc/dcmitype/StillImage" />
        <dc:title />
      </cc:Work>
    </rdf:RDF>
  </metadata>
  <g
     inkscape:label="Layer 1"
     inkscape:groupmode="layer"
     id="layer1"
     transform="translate(0,-796.36218)">
    <path
       sodipodi:type="arc"
       style="fill:none;stroke:#34495e;stroke-width:1px;stroke-linecap:butt;stroke-linejoin:miter;stroke-opacity:1"
       id="path3000"
       sodipodi:cx="-32"
       sodipodi:cy="72"
       sodipodi:rx="112"
       sodipodi:ry="112"
       d="m 80,72 a 112,112 0 1 1 -224,0 112,112 0 1 1 224,0 z"
       transform="matrix(1.1377778,0,0,1.1377778,701.81004,573.74161)" />
    <path
       style="fill:#2c3e50;fill-opacity:1;stroke:none"
       d="m 633.40115,527.66161 0,104 104,-104 c -290.68879,0 -56,0 -104,0 z"
       id="path2987"
       inkscape:connector-curvature="0"
       sodipodi:nodetypes="cccc" />
    <path
       style="fill:#2c3e50;fill-opacity:1;stroke:none"
       d="m 793.40115,551.66161 -104,104 104,128 z"
       id="path2989"
       inkscape:connector-curvature="0"
       sodipodi:nodetypes="cccc" />
    <path
       style="fill:#2c3e50;fill-opacity:1;stroke:none"
       d="m 705.40115,783.66161 -64,-120 -32,120 z"
       id="path2991"
       inkscape:connector-curvature="0"
       sodipodi:nodetypes="cccc" />
    <path
       style="fill:#2c3e50;fill-opacity:1;stroke:none"
       d="m 537.40115,527.66161 64,0 -24,256 -40,0 z"
       id="rect3780"
       inkscape:connector-curvature="0"
       sodipodi:nodetypes="ccccc" />
    <path
       style="fill:#ffffff;fill-opacity:1;stroke:none"
       d="m 537.40115,527.66161 0,128 c 0,-70.69245 57.30755,-128 128,-128 l -128,0 z m 128,0 c 70.69245,0 128,57.30755 128,128 l 0,-128 -128,0 z m 128,128 c 0,70.69245 -57.30755,128 -128,128 l 128,0 0,-128 z m -128,128 c -70.69245,0 -128,-57.30755 -128,-128 l 0,128 128,0 z"
       id="rect3785"
       inkscape:connector-curvature="0" />
    <path
       sodipodi:type="arc"
       style="fill:none;stroke:none;stroke-width:1px;stroke-linecap:butt;stroke-linejoin:miter;stroke-opacity:1"
       id="path3000-1"
       sodipodi:cx="-32"
       sodipodi:cy="72"
       sodipodi:rx="112"
       sodipodi:ry="112"
       d="m 80,72 a 112,112 0 1 1 -224,0 112,112 0 1 1 224,0 z"
       transform="matrix(1.1377778,0,0,1.1377778,-299.59111,786.44218)" />
    <path
       style="fill:#2c3e50;fill-opacity:1;stroke:none"
       d="m -208,740.36218 -160,128 160,128.00002 z"
       id="path2989-4"
       inkscape:connector-curvature="0"
       sodipodi:nodetypes="cccc" />
    <path
       style="fill:#2c3e50;fill-opacity:1;stroke:none"
       d="m -464,740.36218 96,0 0,256 -96,2e-5 z"
       id="rect3780-4"
       inkscape:connector-curvature="0"
       sodipodi:nodetypes="ccccc" />
    <path
       inkscape:connector-curvature="0"
       style="fill:#ffffff;fill-opacity:1;stroke:none"
       d="m -464,740.36218 0,128 c 0,-70.69245 57.30755,-128 128,-128 l -128,0 z m 128,0 c 70.69245,0 128,57.30755 128,128 l 0,-128 -128,0 z m 128,128 c 0,70.69245 -57.30755,128.00002 -128,128.00002 l 128,0 0,-128.00002 z M -336,996.3622 c -70.69245,0 -128,-57.30757 -128,-128.00002 l 0,128.00002 128,0 z"
       id="rect3785-0" />
    <path
       sodipodi:type="arc"
       style="fill:none;stroke:#000000;stroke-opacity:1"
       id="path3000-1-2"
       sodipodi:cx="-32"
       sodipodi:cy="72"
       sodipodi:rx="112"
       sodipodi:ry="112"
       d="m 80,72 a 112,112 0 1 1 -224,0 112,112 0 1 1 224,0 z"
       transform="matrix(1.1377778,0,0,1.1377778,-379.59111,1218.4422)" />
    <path
       style="fill:#2c3e50;fill-opacity:1;stroke:none"
       d="m -288,1172.3622 -160,128 160,128 z"
       id="path2989-4-1"
       inkscape:connector-curvature="0"
       sodipodi:nodetypes="cccc" />
    <path
       style="fill:#2c3e50;fill-opacity:1;stroke:none"
       d="m -544,1172.3622 96,0 0,256 -96,0 z"
       id="rect3780-4-2"
       inkscape:connector-curvature="0"
       sodipodi:nodetypes="ccccc" />
    <path
       inkscape:connector-curvature="0"
       style="fill:#ffffff;fill-opacity:1;stroke:none;stroke-opacity:1"
       d="m -544,1172.3622 0,128 c 0,-70.6925 57.30755,-128 128,-128 l -128,0 z m 128,0 c 70.69245,0 128,57.3075 128,128 l 0,-128 -128,0 z m 128,128 c 0,70.6924 -57.30755,128 -128,128 l 128,0 0,-128 z m -128,128 c -70.69245,0 -128,-57.3076 -128,-128 l 0,128 128,0 z"
       id="rect3785-0-4" />
    <path
       sodipodi:type="arc"
       style="fill:none;stroke:#2c3e50;stroke-opacity:1;stroke-width:1.75781246999999996;stroke-miterlimit:4;stroke-dasharray:none"
       id="path3000-1-2-5"
       sodipodi:cx="-32"
       sodipodi:cy="72"
       sodipodi:rx="112"
       sodipodi:ry="112"
       d="m 80,72 a 112,112 0 1 1 -224,0 112,112 0 1 1 224,0 z"
       transform="matrix(1.1377778,0,0,1.1377778,-363.59111,1522.4422)" />
    <path
       style="fill:#2c3e50;fill-opacity:1;stroke:none"
       d="m -280,1732.3622 0,-32 -144,-96 -16,0 0,128 z"
       id="path2989-4-1-6"
       inkscape:connector-curvature="0"
       sodipodi:nodetypes="cccccc" />
    <path
       style="fill:#2c3e50;fill-opacity:1;stroke:none"
       d="m -440,1476.3622 168,0 0,32 -152,96 -16,0 z"
       id="rect3780-4-2-2"
       inkscape:connector-curvature="0"
       sodipodi:nodetypes="cccccc" />
    <path
       inkscape:connector-curvature="0"
       style="fill:#ffffff;fill-opacity:1;stroke:none"
       d="m -528,1476.3622 0,128 c 0,-70.6925 57.30755,-128 128,-128 z m 128,0 c 70.69245,0 128,57.3075 128,128 l 0,-128 z m 128,128 c 0,70.6924 -57.30755,128 -128,128 l 128,0 z m -128,128 c -70.69245,0 -128,-57.3076 -128,-128 l 0,128 z"
       id="rect3785-0-4-2"
       sodipodi:nodetypes="cccccccccccccccc" />
    <path
       sodipodi:type="arc"
       style="fill:none;stroke:none"
       id="path3000-1-1"
       sodipodi:cx="-32"
       sodipodi:cy="72"
       sodipodi:rx="112"
       sodipodi:ry="112"
       d="m 80,72 a 112,112 0 1 1 -224,0 112,112 0 1 1 224,0 z"
       transform="matrix(1.1377778,0,0,1.1377778,-555.59111,530.44218)" />
    <path
       style="fill:#2c3e50;fill-opacity:1;stroke:none"
       d="m -464,484.36218 c 0,0 -88,96 -160,128 72,40 160,128.00002 160,128.00002 z"
       id="path2989-4-9"
       inkscape:connector-curvature="0"
       sodipodi:nodetypes="cccc" />
    <path
       style="fill:#2c3e50;fill-opacity:1;stroke:none"
       d="m -720,484.36218 96,0 0,256.00002 -96,0 z"
       id="rect3780-4-3"
       inkscape:connector-curvature="0"
       sodipodi:nodetypes="ccccc" />
    <path
       inkscape:connector-curvature="0"
       style="fill:#ffffff;fill-opacity:1;stroke:none"
       d="m -720,484.36218 0,128 c 0,-70.69245 57.30755,-128 128,-128 l -128,0 z m 128,0 c 70.69245,0 128,57.30755 128,128 l 0,-128 -128,0 z m 128,128 c 0,70.69245 -57.30755,128.00002 -128,128.00002 l 128,0 0,-128.00002 z M -592,740.3622 c -70.69245,0 -128,-57.30757 -128,-128.00002 l 0,128.00002 128,0 z"
       id="rect3785-0-2" />
    <path
       sodipodi:type="arc"
       style="fill:none;stroke:none"
       id="path3000-1-1-8"
       sodipodi:cx="-32"
       sodipodi:cy="72"
       sodipodi:rx="112"
       sodipodi:ry="112"
       d="m 80,72 a 112,112 0 1 1 -224,0 112,112 0 1 1 224,0 z"
       transform="matrix(1.1377778,0,0,1.1377778,-203.59111,442.44216)" />
    <path
       style="fill:#2c3e50;fill-opacity:1;stroke:none"
       d="m -112,396.36216 c 0,0 -88,96 -160,128 72,40 160,128.00002 160,128.00002 z"
       id="path2989-4-9-1"
       inkscape:connector-curvature="0"
       sodipodi:nodetypes="cccc" />
    <path
       style="fill:#2c3e50;fill-opacity:1;stroke:none"
       d="m -368,396.36216 88,2e-5 c 16,112.00002 16,144 0,256 l -88,0 z"
       id="rect3780-4-3-6"
       inkscape:connector-curvature="0"
       sodipodi:nodetypes="ccccc" />
    <path
       inkscape:connector-curvature="0"
       style="fill:#ffffff;fill-opacity:1;stroke:none"
       d="m -368,396.36216 0,128 c 0,-70.69245 57.30755,-128 128,-128 l -128,0 z m 128,0 c 70.69245,0 128,57.30755 128,128 l 0,-128 -128,0 z m 128,128 c 0,70.69245 -57.30755,128.00002 -128,128.00002 l 128,0 0,-128.00002 z m -128,128.00002 c -70.69245,0 -128,-57.30757 -128,-128.00002 l 0,128.00002 128,0 z"
       id="rect3785-0-2-3" />
    <path
       sodipodi:type="arc"
       style="fill:none;stroke:none"
       id="path3000-1-3"
       sodipodi:cx="-32"
       sodipodi:cy="72"
       sodipodi:rx="112"
       sodipodi:ry="112"
       d="m 80,72 a 112,112 0 1 1 -224,0 112,112 0 1 1 224,0 z"
       transform="matrix(1.1377778,0,0,1.1377778,164.40889,842.44216)" />
    <path
       style="fill:#444444;fill-opacity:1;stroke:none"
       d="M 112 1 C 48.855144 8.87002 0 62.723361 0 128 C 0 193.27664 48.855144 247.12997 112 255 L 112 128 L 112 1 z M 112 128 L 206.65625 228.96875 C 236.68783 205.54472 256 169.03743 256 128 C 256 86.962573 236.68783 50.455274 206.65625 27.03125 L 112 128 z "
       id="path2989-4-6"
       transform="translate(0,796.36218)" />
    <path
       sodipodi:type="arc"
       style="fill:none;stroke:none"
       id="path3000-1-3-2"
       sodipodi:cx="-32"
       sodipodi:cy="72"
       sodipodi:rx="112"
       sodipodi:ry="112"
       d="m 80,72 a 112,112 0 1 1 -224,0 112,112 0 1 1 224,0 z"
       transform="matrix(1.1377778,0,0,1.1377778,-587.02222,970.44218)" />
    <path
       style="fill:#444444;fill-opacity:1;stroke:none"
       d="m -495.43111,924.36218 -24,0 -120,128.00002 120,128 24,0 z"
       id="path2989-4-6-5"
       inkscape:connector-curvature="0"
       sodipodi:nodetypes="cccccc" />
    <path
       style="fill:#444444;fill-opacity:1;stroke:none"
       d="m -751.43111,924.36218 112,0 0,256.00002 -112,0 z"
       id="rect3780-4-1"
       inkscape:connector-curvature="0"
       sodipodi:nodetypes="ccccc" />
    <path
       inkscape:connector-curvature="0"
       style="fill:#ffffff;fill-opacity:1;stroke:none"
       d="m -751.43111,924.36218 0,128.00002 c 0,-70.69247 57.30755,-128.00002 128,-128.00002 l -128,0 z m 128,0 c 70.69245,0 128,57.30755 128,128.00002 l 0,-128.00002 -128,0 z m 128,128.00002 c 0,70.6924 -57.30755,128 -128,128 l 128,0 0,-128 z m -128,128 c -70.69245,0 -128,-57.3076 -128,-128 l 0,128 128,0 z"
       id="rect3785-0-3" />
    <circle
       style="fill:#4d4d4d;fill-opacity:1;stroke:#464646;stroke-width:1.98449612;stroke-linecap:square;stroke-linejoin:miter;stroke-miterlimit:4;stroke-dasharray:3.96899239, 1.98449619;stroke-dashoffset:0;stroke-opacity:1"
       id="path4482"
       cx="-947.69293"
       cy="1051.5831"
       r="127.00775" />
    <rect
       style="fill:#ffffff;fill-opacity:1;stroke:none;stroke-width:1;stroke-linecap:square;stroke-linejoin:miter;stroke-miterlimit:4;stroke-dasharray:2, 1;stroke-dashoffset:0;stroke-opacity:1"
       id="rect4484"
       width="192"
       height="298.10153"
       x="-1008"
       y="914.26068" />
    <path
       style="fill:#4d4d4d;fill-opacity:1;stroke:#464646;stroke-width:1.98449612;stroke-linecap:square;stroke-linejoin:miter;stroke-miterlimit:4;stroke-dasharray:3.96899239, 1.98449619;stroke-dashoffset:0;stroke-opacity:1"
       id="path4482-1"
       sodipodi:type="arc"
       sodipodi:cx="-953.95172"
       sodipodi:cy="1053.101"
       sodipodi:rx="127.00775"
       sodipodi:ry="127.00775"
       sodipodi:start="5.2010812"
       sodipodi:end="1.0821041"
       d="m -894.32519,940.95977 a 127.00775,127.00775 0 0 1 67.38122,112.14123 127.00775,127.00775 0 0 1 -67.38122,112.1411 l -59.62653,-112.1411 z" />
  </g>
</svg>
